<svg width="345" height="77" viewBox="0 0 345 77" fill="none" xmlns="http://www.w3.org/2000/svg">
<path d="M33 27.2C33 27.8 34 29.4 35.2 30.7L37.3 33H30.6C18.9 33 13 37.7 13 47C13 52.6 15.7 57.1 20.3 59.3C28.1 63.1 32.9 61 44.7 48.7C49.5 43.6 54.6 38.7 56 37.8C60.5 34.6 66.8 36 70.7 41C72.3 43 72.3 51 70.7 53C66.7 58.2 60.8 59.3 55.4 56C53.4 54.7 51.9 54.3 51.5 55C50.6 56.5 51.5 57.6 55.4 59.4C59.7 61.4 63.3 61.4 67.7 59.3C72.3 57.1 75 52.6 75 47C75 41.4 72.3 36.9 67.7 34.7C59.8 30.9 54.9 33.1 43.4 45.4C38.6 50.4 33.6 55.3 32.1 56.2C28 59 23.6 58.5 19.5 54.9C16.4 52.2 16 51.2 16 47.1C16.1 39.2 20.2 36 30.4 36H37.3L35.2 38.3C32.7 40.9 32.3 43 34.3 43C35.8 43 43 35.9 43 34.4C43 33 35.7 26 34.2 26C33.5 26 33 26.5 33 27.2Z" fill="black"/>
<path d="M8.4 20.56V62H4.48V20.56H8.4ZM82.6096 38.144C83.5803 36.0907 85.111 34.392 87.2016 33.048C89.3296 31.6667 91.8496 30.976 94.7616 30.976C97.5243 30.976 100.007 31.6293 102.21 32.936C104.45 34.2053 106.186 36.0347 107.418 38.424C108.687 40.776 109.322 43.52 109.322 46.656C109.322 49.792 108.687 52.5547 107.418 54.944C106.186 57.3333 104.45 59.1813 102.21 60.488C100.007 61.7947 97.5243 62.448 94.7616 62.448C91.887 62.448 89.3856 61.776 87.2576 60.432C85.1296 59.0507 83.5803 57.3333 82.6096 55.28V76.448H78.7456V31.424H82.6096V38.144ZM105.346 46.656C105.346 44.1173 104.842 41.9333 103.834 40.104C102.863 38.2373 101.519 36.8187 99.8016 35.848C98.0843 34.8773 96.143 34.392 93.9776 34.392C91.887 34.392 89.9643 34.896 88.2096 35.904C86.4923 36.912 85.1296 38.3493 84.1216 40.216C83.1136 42.0827 82.6096 44.248 82.6096 46.712C82.6096 49.176 83.1136 51.3413 84.1216 53.208C85.1296 55.0747 86.4923 56.512 88.2096 57.52C89.9643 58.528 91.887 59.032 93.9776 59.032C96.143 59.032 98.0843 58.5467 99.8016 57.576C101.519 56.568 102.863 55.1307 103.834 53.264C104.842 51.36 105.346 49.1573 105.346 46.656ZM114.743 46.712C114.743 43.5387 115.377 40.776 116.647 38.424C117.916 36.0347 119.671 34.2053 121.911 32.936C124.151 31.6293 126.708 30.976 129.583 30.976C133.353 30.976 136.452 31.9093 138.879 33.776C141.343 35.6427 142.929 38.1813 143.639 41.392H139.439C138.916 39.1893 137.777 37.472 136.023 36.24C134.305 34.9707 132.159 34.336 129.583 34.336C127.529 34.336 125.681 34.8027 124.039 35.736C122.396 36.6693 121.089 38.0693 120.119 39.936C119.185 41.7653 118.719 44.024 118.719 46.712C118.719 49.4 119.185 51.6773 120.119 53.544C121.089 55.4107 122.396 56.8107 124.039 57.744C125.681 58.6773 127.529 59.144 129.583 59.144C132.159 59.144 134.305 58.528 136.023 57.296C137.777 56.0267 138.916 54.272 139.439 52.032H143.639C142.929 55.168 141.343 57.688 138.879 59.592C136.415 61.496 133.316 62.448 129.583 62.448C126.708 62.448 124.151 61.8133 121.911 60.544C119.671 59.2373 117.916 57.408 116.647 55.056C115.377 52.6667 114.743 49.8853 114.743 46.712ZM154.798 36.856C155.657 34.952 156.964 33.4773 158.718 32.432C160.51 31.3867 162.694 30.864 165.27 30.864V34.952H164.206C161.369 34.952 159.092 35.7173 157.374 37.248C155.657 38.7787 154.798 41.336 154.798 44.92V62H150.878V31.424H154.798V36.856ZM198.832 45.144C198.832 46.488 198.794 47.5147 198.72 48.224H173.352C173.464 50.5387 174.024 52.5173 175.032 54.16C176.04 55.8027 177.365 57.0533 179.008 57.912C180.65 58.7333 182.442 59.144 184.384 59.144C186.922 59.144 189.05 58.528 190.768 57.296C192.522 56.064 193.68 54.4027 194.24 52.312H198.384C197.637 55.2987 196.032 57.744 193.568 59.648C191.141 61.5147 188.08 62.448 184.384 62.448C181.509 62.448 178.933 61.8133 176.656 60.544C174.378 59.2373 172.586 57.408 171.28 55.056C170.01 52.6667 169.376 49.8853 169.376 46.712C169.376 43.5387 170.01 40.7573 171.28 38.368C172.549 35.9787 174.322 34.1493 176.6 32.88C178.877 31.6107 181.472 30.976 184.384 30.976C187.296 30.976 189.834 31.6107 192 32.88C194.202 34.1493 195.882 35.8667 197.04 38.032C198.234 40.16 198.832 42.5307 198.832 45.144ZM194.856 45.032C194.893 42.7547 194.426 40.8133 193.456 39.208C192.522 37.6027 191.234 36.3893 189.592 35.568C187.949 34.7467 186.157 34.336 184.216 34.336C181.304 34.336 178.821 35.2693 176.768 37.136C174.714 39.0027 173.576 41.6347 173.352 45.032H194.856ZM204.211 46.656C204.211 43.52 204.827 40.776 206.059 38.424C207.329 36.0347 209.065 34.2053 211.267 32.936C213.507 31.6293 216.027 30.976 218.827 30.976C221.739 30.976 224.241 31.648 226.331 32.992C228.459 34.336 229.99 36.0533 230.923 38.144V31.424H234.843V62H230.923V55.224C229.953 57.3147 228.403 59.0507 226.275 60.432C224.185 61.776 221.683 62.448 218.771 62.448C216.009 62.448 213.507 61.7947 211.267 60.488C209.065 59.1813 207.329 57.3333 206.059 54.944C204.827 52.5547 204.211 49.792 204.211 46.656ZM230.923 46.712C230.923 44.248 230.419 42.0827 229.411 40.216C228.403 38.3493 227.022 36.912 225.267 35.904C223.55 34.896 221.646 34.392 219.555 34.392C217.39 34.392 215.449 34.8773 213.731 35.848C212.014 36.8187 210.651 38.2373 209.643 40.104C208.673 41.9333 208.187 44.1173 208.187 46.656C208.187 49.1573 208.673 51.36 209.643 53.264C210.651 55.1307 212.014 56.568 213.731 57.576C215.449 58.5467 217.39 59.032 219.555 59.032C221.646 59.032 223.55 58.528 225.267 57.52C227.022 56.512 228.403 55.0747 229.411 53.208C230.419 51.3413 230.923 49.176 230.923 46.712ZM248.889 34.728V53.712C248.889 55.5787 249.243 56.8667 249.953 57.576C250.662 58.2853 251.913 58.64 253.704 58.64H257.289V62H253.089C250.326 62 248.273 61.3653 246.929 60.096C245.585 58.7893 244.913 56.6613 244.913 53.712V34.728H240.657V31.424H244.913V23.752H248.889V31.424H257.289V34.728H248.889ZM265.713 25.656C264.929 25.656 264.257 25.376 263.697 24.816C263.137 24.256 262.857 23.5653 262.857 22.744C262.857 21.9227 263.137 21.2507 263.697 20.728C264.257 20.168 264.929 19.888 265.713 19.888C266.497 19.888 267.169 20.168 267.729 20.728C268.289 21.2507 268.569 21.9227 268.569 22.744C268.569 23.5653 268.289 24.256 267.729 24.816C267.169 25.376 266.497 25.656 265.713 25.656ZM267.673 31.424V62H263.753V31.424H267.673ZM287.414 58.192L297.718 31.424H301.862L289.598 62H285.174L272.91 31.424H277.11L287.414 58.192ZM334.839 45.144C334.839 46.488 334.802 47.5147 334.727 48.224H309.359C309.471 50.5387 310.031 52.5173 311.039 54.16C312.047 55.8027 313.373 57.0533 315.015 57.912C316.658 58.7333 318.45 59.144 320.391 59.144C322.93 59.144 325.058 58.528 326.775 57.296C328.53 56.064 329.687 54.4027 330.247 52.312H334.391C333.645 55.2987 332.039 57.744 329.575 59.648C327.149 61.5147 324.087 62.448 320.391 62.448C317.517 62.448 314.941 61.8133 312.663 60.544C310.386 59.2373 308.594 57.408 307.287 55.056C306.018 52.6667 305.383 49.8853 305.383 46.712C305.383 43.5387 306.018 40.7573 307.287 38.368C308.557 35.9787 310.33 34.1493 312.607 32.88C314.885 31.6107 317.479 30.976 320.391 30.976C323.303 30.976 325.842 31.6107 328.007 32.88C330.21 34.1493 331.89 35.8667 333.047 38.032C334.242 40.16 334.839 42.5307 334.839 45.144ZM330.863 45.032C330.901 42.7547 330.434 40.8133 329.463 39.208C328.53 37.6027 327.242 36.3893 325.599 35.568C323.957 34.7467 322.165 34.336 320.223 34.336C317.311 34.336 314.829 35.2693 312.775 37.136C310.722 39.0027 309.583 41.6347 309.359 45.032H330.863Z" fill="black"/>
</svg>
