<?xml version="1.0" standalone="no"?>
<!DOCTYPE svg PUBLIC "-//W3C//DTD SVG 20010904//EN"
 "http://www.w3.org/TR/2001/REC-SVG-20010904/DTD/svg10.dtd">
<svg version="1.0" xmlns="http://www.w3.org/2000/svg"
 width="64.000000pt" height="64.000000pt" viewBox="0 0 64.000000 64.000000"
 preserveAspectRatio="xMidYMid meet">

<g transform="translate(0.000000,64.000000) scale(0.100000,-0.100000)"
fill="#000000" stroke="none">
<path d="M210 518 c0 -6 10 -22 22 -35 l21 -23 -67 0 c-117 0 -176 -47 -176
-140 0 -56 27 -101 73 -123 78 -38 126 -17 244 106 48 51 99 100 113 109 45
32 108 18 147 -32 16 -20 16 -100 0 -120 -40 -52 -99 -63 -153 -30 -20 13 -35
17 -39 10 -9 -15 0 -26 39 -44 43 -20 79 -20 123 1 46 22 73 67 73 123 0 56
-27 101 -73 123 -79 38 -128 16 -243 -107 -48 -50 -98 -99 -113 -108 -41 -28
-85 -23 -126 13 -31 27 -35 37 -35 78 1 79 42 111 144 111 l69 0 -21 -23 c-25
-26 -29 -47 -9 -47 15 0 87 71 87 86 0 14 -73 84 -88 84 -7 0 -12 -5 -12 -12z"/>
</g>
</svg>
